<?xml version="1.0" encoding="UTF-8"?>
<svg id="Layer_2" data-name="Layer 2" xmlns="http://www.w3.org/2000/svg" viewBox="0 0 611.26 631.31">
  <g id="Layer_1-2" data-name="Layer 1">
    <path d="M558.26,99.39C447.13-23.9,245.04-33.07,119.94,75.14,8.53,168.17-33.47,334.95,29.11,467.12c59.09,132.16,222.13,203.77,356.02,141.36,25.38-10.01,49.26-31.74,73.54-33.87,25.21-1.9,46.79,20.59,72.33,14.59,29.13-9.46,17.43-46.91,6.55-67.14-8.35-17.09-12.6-36.13-.63-51.99,5.77-8.34,14.65-16.51,21.94-24.27,18.48-18.79,31.83-41.64,39.13-66.98,22.53-91.08,20.65-207.7-39.22-278.86l-.5-.57ZM526.79,287.68c2.77,55.48-13.67,132.06-83.53,123.09-25.94-2.93-73.31-25.03-39.9-52.55,12.14-11.33,32.11-24.12,42.44-39.96,16.9-23.32,8.58-50.24-18.39-60.64-33.13-14.76-79.82-4.54-111.54-7.51-30.93-1.45-42.55-33.9-63.6-51.12-17.78-15.37-36.8-9.01-42.49,12.43-10.28,48.19-2.69,60.79-56.55,75.16-10.12,3.44-26.56,9.1-27.22,19.11,2.45,12.15,25.75,16.79,38.37,21.33,12.39,4.02,25.47,7.18,35.98,14.95,13.99,10.3,16.38,27.75,18.99,46.59,2.27,15.99,4.88,33.74,10.72,51.28,7.31,19.92,24.02,52.38,48.53,48.06,17.38-5.25,25.57-35.21,42.21-42.58,13.53-6.97,37.82,6.39,51.26,15.7,44.67,28.67,63.42,67.94,6.66,91.98C177.69,627.02,15.06,446.48,80.28,250.16c17.78-50.77,56.63-99.43,102.74-124.23,26.11-13.15,54.87-17.51,83.5-23.44,22.72-4.3,46.01-8.74,69.1-9.61,105.36-4.21,193.92,88.9,191.15,193.99l.02.8ZM289.38,343.5c-13.63-9.13,1.76-23.68,11.53-29.34,20.51-12.91,65.98-21.42,85.75-11.99,16.11,14.86-54.62,42.72-66.08,43.72-13.06,2.64-24.46,1.56-30.75-2.12l-.45-.27Z"/>
  </g>
</svg>