<?xml version="1.0" encoding="UTF-8"?>
<svg id="Layer_2" data-name="Layer 2" xmlns="http://www.w3.org/2000/svg" viewBox="0 0 699.1 219.37">
  <g id="Layer_1-2" data-name="Layer 1">
    <path d="M677.96,63.64c-4.63,1.01-9,1.43-13.26,1.22-6.08-.13-12.92-1.69-19.46-.75-21.71,4.29-36.29,26.13-44.57,45.19-2.75,6.53-5.84,14.23-9.91,19.72-4.88,7.07-12.1,9.48-10.81-2.53.87-6.17,3.33-12.5,5.7-18.81,2.34-6.21,4.73-12.39,7.13-18.6,2.72-7.15,5.77-14.12,5.42-19.08-.2-4.84-4.33-8.55-9.22-8.43-4.11,0-8.69,1.5-12.74,2.31-6.67,1.48-11.5,1.6-18.28.54-6.06-.86-12.68-2.47-19.05-.92-20.69,5.25-33.56,25.16-41.69,43.65-3.08,7.06-5.91,14.45-9.96,21.01-3.6,5.9-8.15,10.61-12.85,11.71-6.07,1.59-11.77-3.25-13.99-8.88-4.91-13.18,3.67-25.19,12.99-35,5.6-5.97,13.29-12.1,15.82-17.38,2.09-3.7,2-8.68-1.92-11.15-17.39-9.62-32.08,11.18-41.58,23.17-10.86,13.97-8.91,9.05-4.9-1.58,7.72-20.73,22.53-58.23,29.64-78.18,1.01-3.31,1.55-6.58-1.43-8.49-3.73-2.34-11.97-2.21-18.42-2.29C395.91-.06,103.33.03,37.71,0c-3.65.08-5.65-.44-7.75,2.2-2.93,3.85-10,19.13-4.78,23.02,3.05,1.98,7.54,1.48,11.33,1.64,24.24.05,76.64.05,96.35.14,2.61.02,5.84.09,7.87.91,4.32,1.71-.17,10.37-1.1,13.9-6.6,18.67-19.07,53.77-26.45,74.34-1.56,4.05-3.17,8.07-5.41,11.48-10.67,16.33-36.41,19.36-54.24,15.45-10.52-3.65,2.97-13.83,9.44-19.92,5.92-5.3,11.84-10.72,17.7-16.1,9.36-8.73,20.15-16.72,20.86-30.04.88-14.46-10.88-16.4-24.12-16.02-9.79,0-22.25.03-32.31.04-7.83.29-15.85-1.01-22.17,3.79-6.77,5.43-6.56,17.35,1.16,21.7,4.83,2.63,10.45,2.37,15.92,2.48,4.45.28,16.66-1.01,16.69,3.85-.12,5.29-12.7,14.66-17.81,19.62-7.18,6.4-14.19,12.82-21.36,19.37-5.02,4.63-10.33,9.22-13.53,13.67-10.32,14.14.85,23.97,17.8,24.03,5.95.01,11.98-.8,17.95-.79,9.43-.13,18.71,1.41,28.12,1.04,6.48-.08,14.04-2.49,18.72-3.65,8.23-2.62,11.95,1.33,19.73,3.59,6.94,1.99,14.73-2.67,19.04-8.41,5.12-6.93,7.29-15.79,10.95-23.57,5.59-12.48,12.41-24.49,21.63-34.7,4.04-4.62,14.74-12.94,13.41-.56-1.37,9.55-6.95,20.35-9.38,30.32-2.22,8.62-3.38,17.2-.13,24.79,3.7,9.19,14.25,12.84,23.52,10.68,10.19-2.27,18.34-5.28,28.71-2.37,5.86,1.31,12.39,3.59,19.19,2.54,5.68-.81,10.94-3.65,15.44-7.1,3.23-2.36,6.83-5.68,9.99-7.15,7.79-4.02,12.25,13.12,26.06,14.33,13.96,1.59,26.55-8.39,34.9-18.75,7.17-8.82,11.67-18.13,15.73-28.89,2.78-6.88,7.62-24.72,16.04-24.92,2.54.45,3.76,4.74,3.29,10.5-.27,4.01-1.56,8.6-3.12,13.54-4.12,13.04-7.37,28.37-3.3,38.14,5.05,13,19.57,10.75,30.73,10.63,3.02-.02,6.08.16,9.11.5,4.96.49,10.14,1.73,15.49-.43,11.21-4.22,14.15-17.6,18.87-27.17,8.42-15.87,10.82,13.08,24.11,21.96,18,12.66,29.57-3.68,46.11-.27,7.12,1.4,13.92,5.32,22.33,4.57,5.12-.44,10-2.65,14.38-5.21,5.3-2.75,10.57-7.74,16.4-4.69,3.62,1.94,7.11,5.41,10.88,7.53,11.42,7.25,24.62-1.64,36.83-.75,8.07.27,16.28,3.65,25,2.79,4.64-.28,9.43-2.28,13.81-2.64,2.08-.1,2.77,1.33,2.64,3.19-.18,1.97-.59,4.18-1.21,6.21-2.04,7.16-5.99,18.07-8.68,26.57-1.13,4.32-3.09,9.23-1.42,13.46,2.26,5.25,10.76,5.62,17.09,4.36,3.73-.73,7.17-2.49,8.83-6.11.55-1.08,1.04-2.31,1.55-3.7,9.11-26.92,36.81-107.51,47.05-137.94,1.85-5.45,1.59-9.08-4.97-9.89-4.15-.56-9.77,1.42-15.03,2.5l-.15.03ZM397.86,126.55c-2.45,4.72-6.83,9.98-11.47,12.47-6.4,3.43-8.38-2.19-7.41-7.93,1.63-10.37,7.29-20.42,8.68-30.82,1.89-10.99-1.4-19.93-10.04-26.35-6.98-5.28-14.55-10.36-21.6-15.45-8.78-6.52-18.5-8.02-23.57,2.62-2.95,6.32-2.93,13.84-3.85,20.76-1.01,10.11-4.38,21.64-8.26,31.53-3.02,7.93-6.07,14.92-10.3,20.36-2.69,3.46-10.41,11.4-13.53,4.87-1.85-5.62.46-12.74,2.06-18.43,3.08-9.78,6.7-19.99,10.28-30.18,2.18-7.76,11.19-24.04.61-28.29-7.03-2.61-15.56,1.26-20.41,6.66-4.07,4.5-6.27,11.04-8.89,17.96-6.9,17.23-13.69,36.25-27.65,49.35-3.45,2.95-8.98,6.26-11.66,1.89-1.61-2.83-1.14-8.59.27-14.27,1.78-6.98,4.12-13.15,6.69-20.74,2.11-6.07,4.58-12.99,6.9-19.61,1.58-4.87,3.67-9.87,3.52-15-.83-9.46-13.99-8.21-20.19-4.66-8.99,4.88-11.78,13.91-15.19,23.75-4.1,11.39-7.92,24.89-12.53,36.8-2.19,5.59-9.27,19.59-16,16.86-5.91-4.36,1.43-19.52,3.64-26.56,2.46-6.89,4.79-13.47,6.13-20.48,3.57-16-3.31-32.05-21.1-30.72-7.01.32-16.35,6.59-20.41,8.81-4.16,2.29-3.42-1.82-2.76-4.63,1.78-6.94,6.63-20.17,9.61-28.8,1.46-4.09,3.79-11.13,6.6-13.19,1.65-1.15,3.65-1.11,5.75-1.15,30.48-.03,188.14,0,246.11.04,2.65.15,4.29.08,4.22,2.76-5.61,21.63-18.44,54.5-26.18,78.89-2.47,7.05-4.61,14.27-8,20.76l-.07.14ZM554.05,99.87c-1.21,12.16-8.57,24.81-16.12,34.55-6.58,8.73-21.07,15.97-21.93-.04,0-12.52,9.71-33.58,18.93-42.28,8.61-8.32,19.91-5.93,19.14,7.57v.2ZM654.51,98.09c.26,12-7.19,25.87-14.36,35.58-4.29,5.79-17.68,17.52-21.87,7.03-2.97-11.32,8.75-36.41,17.19-45.56,6.72-7.91,18.01-10.46,19.03,2.77v.19Z"/>
  </g>
</svg>