<?xml version="1.0" encoding="UTF-8"?>
<svg id="Layer_2" data-name="Layer 2" xmlns="http://www.w3.org/2000/svg" viewBox="0 0 481.89 251.86">
  <g id="Layer_1-2" data-name="Layer 1">
    <path d="M481.81,85.67c1.43,33.26-16.51,62.39-34.21,89.31-18.55,27-33.8,55.33-61.73,69.85-13.17,7.61-37.25,10.96-36.1-10.63.97-14.46,12.69-33.73,11.88-48.69-1.68-23.45-23.33,1.92-28.92,9.84-10.23,14.21-22.37,34.58-40.2,44.15-36.24,20.47-68.43,11.96-103.37-4.79-16-7.06-30.5-8.85-46.31-2.82-16.78,5.89-33.16,16.2-53.85,19.03-16.5,2.34-33.73.28-49.12-6.1-12.12-5.06-24.78-13.26-31.58-23.84-9.88-15.83-6.44-36.48,11.67-38.61,16.48-2.3,40.12,10.38,58.67,7.26,10.7-1.61,18.66-11.82,14.75-22.55-9.24-23.95-39.69-34.73-35.23-65.27.67-10.94,5.26-22.44,2.12-32.88-5.55-13.44-20.63-12.8-36.25-20.03C11.62,43.9-7.11,31.37,2.78,16.46,15.39-.72,47.64-.06,70.92.02c10.85.02,21.86-.1,31.8.32,17.19,1.31,42.82,2.66,47.72,21.57,2.52,11.42-5.05,27.9-9.02,43.81-3.42,14.81-7.6,34.8,4.07,46.61,15.93,11.17,30.19-3.52,42.43-20.19,18.9-25.67,35.68-58.93,60.78-76.61,12.88-9.74,42.95-22.1,45.97,1.84.68,13.72-11.06,33.04-11.72,47.07-1.82,22.14,12.07,15.2,22.98,2.2,15.16-18.37,27.56-43.83,51.02-54.26,55.86-28.11,124.12,8.98,124.85,72.78l.02.49Z"/>
  </g>
</svg>